<svg width="240" height="80" viewBox="0 0 240 80" fill="none" xmlns="http://www.w3.org/2000/svg">
<path d="M106.4 21V29.34H113.42V34.86H106.4V47.7599C106.4 51.2999 107.36 53.16 110.18 53.16C111.44 53.16 112.4 52.98 113.06 52.8L113.18 58.4399C112.1 58.8599 110.18 59.16 107.84 59.16C105.14 59.16 102.86 58.2599 101.48 56.7599C99.92 55.0799 99.2 52.44 99.2 48.6V34.86H95V29.34H99.2V22.74L106.4 21Z" fill="black"/>
<path d="M123.861 46.0197C124.041 51.2997 128.181 53.5797 132.861 53.5797C136.281 53.5797 138.741 53.0996 140.961 52.2596L142.041 57.3597C139.521 58.3797 136.041 59.1597 131.841 59.1597C122.361 59.1597 116.781 53.3397 116.781 44.3997C116.781 36.2997 121.701 28.6797 131.061 28.6797C140.541 28.6797 143.661 36.4797 143.661 42.8997C143.661 44.2797 143.541 45.3597 143.421 46.0197H123.861V46.0197ZM136.691 40.8597C136.751 38.1597 135.551 33.7197 130.631 33.7197C126.071 33.7197 124.151 37.8597 123.851 40.8597H136.691Z" fill="black"/>
<path d="M166.027 58.5597L165.547 55.3196H165.367C163.567 57.5996 160.507 59.2197 156.727 59.2197C150.847 59.2197 147.547 54.9597 147.547 50.5197C147.547 43.1397 154.087 39.4197 164.887 39.4797V38.9997C164.887 37.0797 164.107 33.8997 158.947 33.8997C156.067 33.8997 153.067 34.7997 151.087 36.0597L149.647 31.2596C151.807 29.9396 155.587 28.6797 160.207 28.6797C169.567 28.6797 172.267 34.6197 172.267 40.9797V51.5397C172.267 54.1797 172.387 56.7597 172.687 58.5597H166.027V58.5597ZM165.067 44.2797C159.847 44.1597 154.867 45.2997 154.867 49.7397C154.867 52.6197 156.727 53.9396 159.067 53.9396C162.007 53.9396 164.167 52.0197 164.827 49.9197C165.007 49.3797 165.067 48.7797 165.067 48.2997V44.2797Z" fill="black"/>
<path d="M180.084 38.0397C180.084 34.6797 180.024 31.8597 179.844 29.3397H186.204L186.504 33.6597H186.684C188.124 31.3797 190.764 28.6797 195.684 28.6797C199.524 28.6797 202.524 30.8397 203.784 34.0797H203.904C204.924 32.4597 206.124 31.2597 207.504 30.4197C209.124 29.2797 210.984 28.6797 213.384 28.6797C218.244 28.6797 223.164 31.9797 223.164 41.3397V58.5597H215.964V42.4197C215.964 37.5597 214.284 34.6797 210.744 34.6797C208.224 34.6797 206.364 36.4797 205.584 38.5797C205.404 39.2997 205.224 40.1997 205.224 41.0397V58.5597H198.024V41.6396C198.024 37.5596 196.404 34.6797 192.984 34.6797C190.224 34.6797 188.364 36.8396 187.704 38.8796C187.404 39.5996 187.284 40.4397 187.284 41.2797V58.5597H180.084V38.0397Z" fill="black"/>
<path d="M230.047 54.4783C230.047 51.7183 231.967 49.7383 234.607 49.7383C237.307 49.7383 239.167 51.6583 239.167 54.4783C239.167 57.1783 237.367 59.2183 234.607 59.2183C231.907 59.2183 230.047 57.1783 230.047 54.4783Z" fill="black"/>
<rect width="80" height="80" rx="16" fill="#6551F3"/>
<path d="M65.09 64.88H54.13V48.28C54.13 46.62 52.09 45.65 48.86 45.65C45.42 45.65 43.45 46.62 43.45 48.28V64.88H14V42.27H24.96V60.01H34.8V48.28C34.8 43.69 39.58 41.21 49.77 41.21C58.56 41.21 65.09 43.54 65.09 48.28V64.88Z" fill="white"/>
<path d="M65.09 38.55H54.13V23.83C54.13 21.99 52.16 20.84 48.72 20.84C45.42 20.84 43.45 21.72 43.45 23.44V33.26H34.81V23.77C34.81 22.05 33.19 21.23 29.89 21.23C26.45 21.23 24.9 22.23 24.9 24.13V38.46H14.01V23.83C14.01 19.42 18.51 16.48 27.36 16.48C33.54 16.48 36.57 17.75 37.9 18.99C39.52 17.33 43.52 16 48.86 16C58.98 16 65.1 18.96 65.1 23.29L65.09 38.55Z" fill="white"/>
</svg>
